<svg width="197" height="24" viewBox="0 0 197 24" fill="none" xmlns="http://www.w3.org/2000/svg">
<path d="M20.01 15.38C18.78 15.38 17.59 15.18 16.48 14.82C16.13 14.7 15.74 14.79 15.47 15.06L13.9 17.03C11.07 15.68 8.42 13.13 7.01 10.2L8.96 8.54C9.23 8.26 9.31 7.87 9.2 7.52C8.83 6.41 8.64 5.22 8.64 3.99C8.64 3.45 8.19 3 7.65 3H4.19C3.65 3 3 3.24 3 3.99C3 13.28 10.73 21 20.01 21C20.72 21 21 20.37 21 19.82V16.37C21 15.83 20.55 15.38 20.01 15.38Z" fill="#B8FF20"/>
<path d="M31.973 17.0057V7.95455H34.2614V17.0057H31.973ZM28.5916 13.6243V11.3359H37.6428V13.6243H28.5916ZM40.2859 19L45.7127 8.26136V8.17188H39.391V5.90909H48.5764V8.20384L43.1431 19H40.2859ZM51.0996 12.4545C51.0996 10.8693 51.3105 9.4098 51.7324 8.07599C52.1586 6.74219 52.8084 5.50639 53.682 4.36861H56.2836C55.9512 4.79048 55.6422 5.30611 55.3567 5.91548C55.0712 6.5206 54.8219 7.18537 54.6088 7.9098C54.3958 8.63423 54.2296 9.38423 54.1103 10.1598C53.9909 10.9311 53.9313 11.696 53.9313 12.4545C53.9313 13.4645 54.0336 14.4851 54.2381 15.5163C54.4469 16.5433 54.7282 17.4979 55.0819 18.38C55.4398 19.2621 55.8404 19.9844 56.2836 20.5469H53.682C52.8084 19.4091 52.1586 18.1733 51.7324 16.8395C51.3105 15.5057 51.0996 14.044 51.0996 12.4545ZM62.6772 19.179C61.7227 19.179 60.8725 19.0149 60.1268 18.6868C59.3853 18.3544 58.7994 17.8984 58.369 17.3189C57.9428 16.7351 57.7234 16.0618 57.7106 15.299H60.4975C60.5146 15.6186 60.619 15.8999 60.8107 16.1428C61.0067 16.3814 61.2667 16.5668 61.5906 16.6989C61.9144 16.831 62.2788 16.897 62.6836 16.897C63.1055 16.897 63.4783 16.8224 63.8022 16.6733C64.1261 16.5241 64.3796 16.3175 64.5629 16.0533C64.7461 15.7891 64.8377 15.4844 64.8377 15.1392C64.8377 14.7898 64.7397 14.4808 64.5437 14.2124C64.3519 13.9396 64.0749 13.7266 63.7127 13.5732C63.3548 13.4197 62.9286 13.343 62.4343 13.343H61.2134V11.3104H62.4343C62.8519 11.3104 63.2205 11.2379 63.5401 11.093C63.864 10.9482 64.1154 10.7479 64.2944 10.4922C64.4734 10.2322 64.5629 9.92969 64.5629 9.58452C64.5629 9.25639 64.484 8.96875 64.3263 8.72159C64.1729 8.47017 63.9556 8.27415 63.6744 8.13352C63.3974 7.9929 63.0735 7.92259 62.7028 7.92259C62.3278 7.92259 61.9847 7.99077 61.6737 8.12713C61.3626 8.25923 61.1133 8.44886 60.9258 8.69602C60.7383 8.94318 60.6381 9.23295 60.6254 9.56534H57.9727C57.9854 8.81108 58.2006 8.14631 58.6183 7.57102C59.0359 6.99574 59.5984 6.54616 60.3058 6.2223C61.0174 5.89418 61.8207 5.73011 62.7156 5.73011C63.619 5.73011 64.4094 5.89418 65.087 6.2223C65.7646 6.55043 66.2908 6.99361 66.6658 7.55185C67.0451 8.10582 67.2326 8.72798 67.2283 9.41832C67.2326 10.1513 67.0046 10.7628 66.5444 11.2528C66.0884 11.7429 65.494 12.054 64.761 12.1861V12.2884C65.7241 12.4119 66.457 12.7464 66.9599 13.2919C67.467 13.8331 67.7184 14.5107 67.7141 15.3246C67.7184 16.0703 67.5032 16.733 67.0685 17.3125C66.6381 17.892 66.0437 18.348 65.2852 18.6804C64.5266 19.0128 63.6573 19.179 62.6772 19.179ZM74.5872 19.179C73.6028 19.179 72.7271 19.0192 71.96 18.6996C71.1973 18.3757 70.5985 17.9347 70.1639 17.3764C69.7292 16.8182 69.5119 16.1854 69.5119 15.478C69.5119 14.9325 69.6355 14.4318 69.8826 13.9759C70.1341 13.5156 70.475 13.1342 70.9054 12.8317C71.3358 12.5249 71.8173 12.3288 72.35 12.2436V12.1541C71.6511 12.0135 71.0843 11.6747 70.6497 11.1378C70.215 10.5966 69.9977 9.96804 69.9977 9.25213C69.9977 8.57457 70.1958 7.97159 70.5922 7.44318C70.9885 6.91051 71.5318 6.4929 72.2221 6.19034C72.9167 5.88352 73.7051 5.73011 74.5872 5.73011C75.4693 5.73011 76.2555 5.88352 76.9458 6.19034C77.6404 6.49716 78.1859 6.9169 78.5822 7.44957C78.9785 7.97798 79.1788 8.57884 79.1831 9.25213C79.1788 9.9723 78.9572 10.6009 78.5183 11.1378C78.0794 11.6747 77.5169 12.0135 76.8308 12.1541V12.2436C77.3549 12.3288 77.8301 12.5249 78.2562 12.8317C78.6866 13.1342 79.0275 13.5156 79.2789 13.9759C79.5346 14.4318 79.6646 14.9325 79.6689 15.478C79.6646 16.1854 79.4451 16.8182 79.0105 17.3764C78.5758 17.9347 77.975 18.3757 77.2079 18.6996C76.4451 19.0192 75.5716 19.179 74.5872 19.179ZM74.5872 17.1463C75.0261 17.1463 75.4096 17.0675 75.7377 16.9098C76.0659 16.7479 76.3216 16.5263 76.5048 16.245C76.6923 15.9595 76.786 15.6314 76.786 15.2607C76.786 14.8814 76.6902 14.5469 76.4984 14.2571C76.3066 13.9631 76.0467 13.733 75.7186 13.5668C75.3904 13.3963 75.0133 13.3111 74.5872 13.3111C74.1653 13.3111 73.7882 13.3963 73.4558 13.5668C73.1234 13.733 72.8613 13.9631 72.6696 14.2571C72.4821 14.5469 72.3883 14.8814 72.3883 15.2607C72.3883 15.6314 72.4799 15.9595 72.6632 16.245C72.8464 16.5263 73.1042 16.7479 73.4366 16.9098C73.769 17.0675 74.1525 17.1463 74.5872 17.1463ZM74.5872 11.2976C74.9537 11.2976 75.2797 11.223 75.5652 11.0739C75.8507 10.9247 76.0744 10.718 76.2363 10.4538C76.3983 10.1896 76.4792 9.88494 76.4792 9.53977C76.4792 9.19886 76.3983 8.90057 76.2363 8.64489C76.0744 8.38494 75.8528 8.18253 75.5716 8.03764C75.2903 7.88849 74.9622 7.81392 74.5872 7.81392C74.2164 7.81392 73.8883 7.88849 73.6028 8.03764C73.3173 8.18253 73.0936 8.38494 72.9316 8.64489C72.774 8.90057 72.6951 9.19886 72.6951 9.53977C72.6951 9.88494 72.7761 10.1896 72.938 10.4538C73.1 10.718 73.3237 10.9247 73.6092 11.0739C73.8947 11.223 74.2207 11.2976 74.5872 11.2976ZM81.4059 16.6989V14.5192L86.8711 5.90909H88.7504V8.92614H87.6381L84.1928 14.3786V14.4808H91.9592V16.6989H81.4059ZM87.6893 19V16.0341L87.7404 15.0689V5.90909H90.3356V19H87.6893ZM98.4183 12.4545C98.4183 14.044 98.2053 15.5057 97.7791 16.8395C97.3572 18.1733 96.7095 19.4091 95.8359 20.5469H93.2344C93.5668 20.125 93.8757 19.6094 94.1612 19C94.4467 18.3906 94.696 17.7259 94.9091 17.0057C95.1222 16.2812 95.2884 15.5312 95.4077 14.7557C95.527 13.9801 95.5866 13.2131 95.5866 12.4545C95.5866 11.4446 95.4822 10.4261 95.2734 9.39915C95.0689 8.3679 94.7876 7.41335 94.4297 6.53551C94.076 5.65341 93.6776 4.93111 93.2344 4.36861H95.8359C96.7095 5.50639 97.3572 6.74219 97.7791 8.07599C98.2053 9.4098 98.4183 10.8693 98.4183 12.4545ZM106.052 19.179C105.068 19.179 104.192 19.0192 103.425 18.6996C102.662 18.3757 102.063 17.9347 101.629 17.3764C101.194 16.8182 100.977 16.1854 100.977 15.478C100.977 14.9325 101.1 14.4318 101.347 13.9759C101.599 13.5156 101.94 13.1342 102.37 12.8317C102.801 12.5249 103.282 12.3288 103.815 12.2436V12.1541C103.116 12.0135 102.549 11.6747 102.115 11.1378C101.68 10.5966 101.463 9.96804 101.463 9.25213C101.463 8.57457 101.661 7.97159 102.057 7.44318C102.453 6.91051 102.997 6.4929 103.687 6.19034C104.382 5.88352 105.17 5.73011 106.052 5.73011C106.934 5.73011 107.72 5.88352 108.411 6.19034C109.105 6.49716 109.651 6.9169 110.047 7.44957C110.443 7.97798 110.644 8.57884 110.648 9.25213C110.644 9.9723 110.422 10.6009 109.983 11.1378C109.544 11.6747 108.982 12.0135 108.296 12.1541V12.2436C108.82 12.3288 109.295 12.5249 109.721 12.8317C110.151 13.1342 110.492 13.5156 110.744 13.9759C110.999 14.4318 111.129 14.9325 111.134 15.478C111.129 16.1854 110.91 16.8182 110.475 17.3764C110.041 17.9347 109.44 18.3757 108.673 18.6996C107.91 19.0192 107.036 19.179 106.052 19.179ZM106.052 17.1463C106.491 17.1463 106.874 17.0675 107.203 16.9098C107.531 16.7479 107.786 16.5263 107.97 16.245C108.157 15.9595 108.251 15.6314 108.251 15.2607C108.251 14.8814 108.155 14.5469 107.963 14.2571C107.771 13.9631 107.512 13.733 107.183 13.5668C106.855 13.3963 106.478 13.3111 106.052 13.3111C105.63 13.3111 105.253 13.3963 104.921 13.5668C104.588 13.733 104.326 13.9631 104.134 14.2571C103.947 14.5469 103.853 14.8814 103.853 15.2607C103.853 15.6314 103.945 15.9595 104.128 16.245C104.311 16.5263 104.569 16.7479 104.901 16.9098C105.234 17.0675 105.617 17.1463 106.052 17.1463ZM106.052 11.2976C106.419 11.2976 106.744 11.223 107.03 11.0739C107.316 10.9247 107.539 10.718 107.701 10.4538C107.863 10.1896 107.944 9.88494 107.944 9.53977C107.944 9.19886 107.863 8.90057 107.701 8.64489C107.539 8.38494 107.318 8.18253 107.036 8.03764C106.755 7.88849 106.427 7.81392 106.052 7.81392C105.681 7.81392 105.353 7.88849 105.068 8.03764C104.782 8.18253 104.558 8.38494 104.396 8.64489C104.239 8.90057 104.16 9.19886 104.16 9.53977C104.16 9.88494 104.241 10.1896 104.403 10.4538C104.565 10.718 104.789 10.9247 105.074 11.0739C105.36 11.223 105.686 11.2976 106.052 11.2976ZM117.952 19.179C116.968 19.179 116.092 19.0192 115.325 18.6996C114.563 18.3757 113.964 17.9347 113.529 17.3764C113.094 16.8182 112.877 16.1854 112.877 15.478C112.877 14.9325 113.001 14.4318 113.248 13.9759C113.499 13.5156 113.84 13.1342 114.271 12.8317C114.701 12.5249 115.183 12.3288 115.715 12.2436V12.1541C115.016 12.0135 114.45 11.6747 114.015 11.1378C113.58 10.5966 113.363 9.96804 113.363 9.25213C113.363 8.57457 113.561 7.97159 113.957 7.44318C114.354 6.91051 114.897 6.4929 115.587 6.19034C116.282 5.88352 117.07 5.73011 117.952 5.73011C118.835 5.73011 119.621 5.88352 120.311 6.19034C121.006 6.49716 121.551 6.9169 121.947 7.44957C122.344 7.97798 122.544 8.57884 122.548 9.25213C122.544 9.9723 122.322 10.6009 121.884 11.1378C121.445 11.6747 120.882 12.0135 120.196 12.1541V12.2436C120.72 12.3288 121.195 12.5249 121.621 12.8317C122.052 13.1342 122.393 13.5156 122.644 13.9759C122.9 14.4318 123.03 14.9325 123.034 15.478C123.03 16.1854 122.81 16.8182 122.376 17.3764C121.941 17.9347 121.34 18.3757 120.573 18.6996C119.81 19.0192 118.937 19.179 117.952 19.179ZM117.952 17.1463C118.391 17.1463 118.775 17.0675 119.103 16.9098C119.431 16.7479 119.687 16.5263 119.87 16.245C120.058 15.9595 120.151 15.6314 120.151 15.2607C120.151 14.8814 120.055 14.5469 119.864 14.2571C119.672 13.9631 119.412 13.733 119.084 13.5668C118.756 13.3963 118.379 13.3111 117.952 13.3111C117.531 13.3111 117.153 13.3963 116.821 13.5668C116.489 13.733 116.227 13.9631 116.035 14.2571C115.847 14.5469 115.754 14.8814 115.754 15.2607C115.754 15.6314 115.845 15.9595 116.028 16.245C116.212 16.5263 116.469 16.7479 116.802 16.9098C117.134 17.0675 117.518 17.1463 117.952 17.1463ZM117.952 11.2976C118.319 11.2976 118.645 11.223 118.93 11.0739C119.216 10.9247 119.44 10.718 119.602 10.4538C119.763 10.1896 119.844 9.88494 119.844 9.53977C119.844 9.19886 119.763 8.90057 119.602 8.64489C119.44 8.38494 119.218 8.18253 118.937 8.03764C118.656 7.88849 118.327 7.81392 117.952 7.81392C117.582 7.81392 117.254 7.88849 116.968 8.03764C116.683 8.18253 116.459 8.38494 116.297 8.64489C116.139 8.90057 116.06 9.19886 116.06 9.53977C116.06 9.88494 116.141 10.1896 116.303 10.4538C116.465 10.718 116.689 10.9247 116.974 11.0739C117.26 11.223 117.586 11.2976 117.952 11.2976ZM129.808 19.179C128.854 19.179 128.003 19.0149 127.258 18.6868C126.516 18.3544 125.93 17.8984 125.5 17.3189C125.074 16.7351 124.854 16.0618 124.841 15.299H127.628C127.645 15.6186 127.75 15.8999 127.942 16.1428C128.138 16.3814 128.398 16.5668 128.721 16.6989C129.045 16.831 129.41 16.897 129.814 16.897C130.236 16.897 130.609 16.8224 130.933 16.6733C131.257 16.5241 131.51 16.3175 131.694 16.0533C131.877 15.7891 131.969 15.4844 131.969 15.1392C131.969 14.7898 131.871 14.4808 131.675 14.2124C131.483 13.9396 131.206 13.7266 130.844 13.5732C130.486 13.4197 130.059 13.343 129.565 13.343H128.344V11.3104H129.565C129.983 11.3104 130.351 11.2379 130.671 11.093C130.995 10.9482 131.246 10.7479 131.425 10.4922C131.604 10.2322 131.694 9.92969 131.694 9.58452C131.694 9.25639 131.615 8.96875 131.457 8.72159C131.304 8.47017 131.086 8.27415 130.805 8.13352C130.528 7.9929 130.204 7.92259 129.834 7.92259C129.459 7.92259 129.116 7.99077 128.805 8.12713C128.493 8.25923 128.244 8.44886 128.057 8.69602C127.869 8.94318 127.769 9.23295 127.756 9.56534H125.104C125.116 8.81108 125.331 8.14631 125.749 7.57102C126.167 6.99574 126.729 6.54616 127.437 6.2223C128.148 5.89418 128.952 5.73011 129.846 5.73011C130.75 5.73011 131.54 5.89418 132.218 6.2223C132.895 6.55043 133.422 6.99361 133.797 7.55185C134.176 8.10582 134.363 8.72798 134.359 9.41832C134.363 10.1513 134.135 10.7628 133.675 11.2528C133.219 11.7429 132.625 12.054 131.892 12.1861V12.2884C132.855 12.4119 133.588 12.7464 134.091 13.2919C134.598 13.8331 134.849 14.5107 134.845 15.3246C134.849 16.0703 134.634 16.733 134.199 17.3125C133.769 17.892 133.175 18.348 132.416 18.6804C131.657 19.0128 130.788 19.179 129.808 19.179ZM142.977 11.3743V13.5348H137.007V11.3743H142.977ZM150.023 19.179C149.068 19.179 148.218 19.0149 147.472 18.6868C146.731 18.3544 146.145 17.8984 145.715 17.3189C145.289 16.7351 145.069 16.0618 145.056 15.299H147.843C147.86 15.6186 147.965 15.8999 148.156 16.1428C148.352 16.3814 148.612 16.5668 148.936 16.6989C149.26 16.831 149.624 16.897 150.029 16.897C150.451 16.897 150.824 16.8224 151.148 16.6733C151.472 16.5241 151.725 16.3175 151.909 16.0533C152.092 15.7891 152.183 15.4844 152.183 15.1392C152.183 14.7898 152.085 14.4808 151.889 14.2124C151.698 13.9396 151.421 13.7266 151.058 13.5732C150.7 13.4197 150.274 13.343 149.78 13.343H148.559V11.3104H149.78C150.198 11.3104 150.566 11.2379 150.886 11.093C151.21 10.9482 151.461 10.7479 151.64 10.4922C151.819 10.2322 151.909 9.92969 151.909 9.58452C151.909 9.25639 151.83 8.96875 151.672 8.72159C151.519 8.47017 151.301 8.27415 151.02 8.13352C150.743 7.9929 150.419 7.92259 150.048 7.92259C149.673 7.92259 149.33 7.99077 149.019 8.12713C148.708 8.25923 148.459 8.44886 148.271 8.69602C148.084 8.94318 147.984 9.23295 147.971 9.56534H145.318C145.331 8.81108 145.546 8.14631 145.964 7.57102C146.382 6.99574 146.944 6.54616 147.651 6.2223C148.363 5.89418 149.166 5.73011 150.061 5.73011C150.965 5.73011 151.755 5.89418 152.433 6.2223C153.11 6.55043 153.637 6.99361 154.012 7.55185C154.391 8.10582 154.578 8.72798 154.574 9.41832C154.578 10.1513 154.35 10.7628 153.89 11.2528C153.434 11.7429 152.84 12.054 152.107 12.1861V12.2884C153.07 12.4119 153.803 12.7464 154.306 13.2919C154.813 13.8331 155.064 14.5107 155.06 15.3246C155.064 16.0703 154.849 16.733 154.414 17.3125C153.984 17.892 153.389 18.348 152.631 18.6804C151.872 19.0128 151.003 19.179 150.023 19.179ZM161.933 19.179C160.949 19.179 160.073 19.0192 159.306 18.6996C158.543 18.3757 157.944 17.9347 157.51 17.3764C157.075 16.8182 156.858 16.1854 156.858 15.478C156.858 14.9325 156.981 14.4318 157.228 13.9759C157.48 13.5156 157.821 13.1342 158.251 12.8317C158.681 12.5249 159.163 12.3288 159.696 12.2436V12.1541C158.997 12.0135 158.43 11.6747 157.995 11.1378C157.561 10.5966 157.343 9.96804 157.343 9.25213C157.343 8.57457 157.542 7.97159 157.938 7.44318C158.334 6.91051 158.877 6.4929 159.568 6.19034C160.262 5.88352 161.051 5.73011 161.933 5.73011C162.815 5.73011 163.601 5.88352 164.292 6.19034C164.986 6.49716 165.532 6.9169 165.928 7.44957C166.324 7.97798 166.525 8.57884 166.529 9.25213C166.525 9.9723 166.303 10.6009 165.864 11.1378C165.425 11.6747 164.863 12.0135 164.176 12.1541V12.2436C164.701 12.3288 165.176 12.5249 165.602 12.8317C166.032 13.1342 166.373 13.5156 166.625 13.9759C166.88 14.4318 167.01 14.9325 167.015 15.478C167.01 16.1854 166.791 16.8182 166.356 17.3764C165.922 17.9347 165.321 18.3757 164.554 18.6996C163.791 19.0192 162.917 19.179 161.933 19.179ZM161.933 17.1463C162.372 17.1463 162.755 17.0675 163.083 16.9098C163.412 16.7479 163.667 16.5263 163.85 16.245C164.038 15.9595 164.132 15.6314 164.132 15.2607C164.132 14.8814 164.036 14.5469 163.844 14.2571C163.652 13.9631 163.392 13.733 163.064 13.5668C162.736 13.3963 162.359 13.3111 161.933 13.3111C161.511 13.3111 161.134 13.3963 160.801 13.5668C160.469 13.733 160.207 13.9631 160.015 14.2571C159.828 14.5469 159.734 14.8814 159.734 15.2607C159.734 15.6314 159.826 15.9595 160.009 16.245C160.192 16.5263 160.45 16.7479 160.782 16.9098C161.115 17.0675 161.498 17.1463 161.933 17.1463ZM161.933 11.2976C162.299 11.2976 162.625 11.223 162.911 11.0739C163.196 10.9247 163.42 10.718 163.582 10.4538C163.744 10.1896 163.825 9.88494 163.825 9.53977C163.825 9.19886 163.744 8.90057 163.582 8.64489C163.42 8.38494 163.199 8.18253 162.917 8.03764C162.636 7.88849 162.308 7.81392 161.933 7.81392C161.562 7.81392 161.234 7.88849 160.949 8.03764C160.663 8.18253 160.439 8.38494 160.277 8.64489C160.12 8.90057 160.041 9.19886 160.041 9.53977C160.041 9.88494 160.122 10.1896 160.284 10.4538C160.446 10.718 160.669 10.9247 160.955 11.0739C161.24 11.223 161.566 11.2976 161.933 11.2976ZM175.093 11.3743V13.5348H169.122V11.3743H175.093ZM183.083 5.90909V19H180.315V8.53622H180.238L177.24 10.4155V7.96094L180.481 5.90909H183.083ZM186.194 19V17.0057L190.854 12.6911C191.25 12.3075 191.582 11.9624 191.851 11.6555C192.124 11.3487 192.33 11.0483 192.471 10.7543C192.612 10.456 192.682 10.1342 192.682 9.78906C192.682 9.40554 192.594 9.07528 192.42 8.7983C192.245 8.51705 192.006 8.30185 191.704 8.1527C191.401 7.99929 191.058 7.92259 190.675 7.92259C190.274 7.92259 189.925 8.00355 189.626 8.16548C189.328 8.32741 189.098 8.55966 188.936 8.86222C188.774 9.16477 188.693 9.52486 188.693 9.94247H186.066C186.066 9.08594 186.26 8.34233 186.648 7.71165C187.036 7.08097 187.579 6.59304 188.278 6.24787C188.977 5.9027 189.782 5.73011 190.694 5.73011C191.631 5.73011 192.447 5.89631 193.142 6.22869C193.841 6.55682 194.384 7.01278 194.772 7.59659C195.16 8.1804 195.354 8.84943 195.354 9.60369C195.354 10.098 195.256 10.5859 195.06 11.0675C194.868 11.549 194.525 12.0838 194.031 12.6719C193.536 13.2557 192.839 13.9567 191.94 14.7749L190.029 16.6477V16.7372H195.526V19H186.194Z" fill="white"/>
</svg>
